<?xml version="1.0" encoding="UTF-8" standalone="no"?>
<svg
   version="1.1"
   width="1000"
   height="1000"
   viewBox="0 0 1000 1000"
   xml:space="preserve"
   id="svg8"
   sodipodi:docname="logo.svg"
   inkscape:version="1.3 (0e150ed6c4, 2023-07-21)"
   xmlns:inkscape="http://www.inkscape.org/namespaces/inkscape"
   xmlns:sodipodi="http://sodipodi.sourceforge.net/DTD/sodipodi-0.dtd"
   xmlns="http://www.w3.org/2000/svg"
   xmlns:svg="http://www.w3.org/2000/svg"><sodipodi:namedview
   id="namedview8"
   pagecolor="#ffffff"
   bordercolor="#000000"
   borderopacity="0.25"
   inkscape:showpageshadow="2"
   inkscape:pageopacity="0.0"
   inkscape:pagecheckerboard="0"
   inkscape:deskcolor="#d1d1d1"
   inkscape:zoom="0.803"
   inkscape:cx="500"
   inkscape:cy="500"
   inkscape:window-width="1920"
   inkscape:window-height="1011"
   inkscape:window-x="0"
   inkscape:window-y="0"
   inkscape:window-maximized="1"
   inkscape:current-layer="svg8" />&#10;<desc
   id="desc1">Created with Fabric.js 3.5.0</desc>&#10;<defs
   id="defs2">&#10;    <linearGradient
   id="Gradient1"
   x1="0"
   x2="1"
   y1="0"
   y2="0">&#10;      <stop
   offset="0%"
   stop-color="rgb(240, 175, 55)"
   id="stop1" />&#10;      <stop
   offset="100%"
   stop-color="rgb(137, 222, 255)"
   id="stop2" />&#10;    </linearGradient>&#10;</defs>&#10;&#10;<g
   transform="matrix(10.695 0 0 12.1098 500.0001 646.3841)"
   id="162870"
   style="fill:#000000">&#10;<g
   style="fill:#000000"
   vector-effect="non-scaling-stroke"
   id="g5">&#10;		<g
   transform="matrix(1 0 0 1 0.0027 -12.5013)"
   id="g2"
   style="fill:#000000">&#10;<path
   style="stroke:none;stroke-width:1;stroke-dasharray:none;stroke-linecap:butt;stroke-dashoffset:0;stroke-linejoin:miter;stroke-miterlimit:4;is-custom-font:none;font-file-url:none;fill:#000000;fill-rule:nonzero;opacity:1"
   transform=" translate(-50.0027, -49.9987)"
   d="M 84.091 43.386 c 0.848 -1.485 1.242 -3.173 1.044 -4.872 c -0.41 -3.525 -0.236 -2.835 -2.625 -4.591 c -7.048 -4.525 -10.314 -18.941 -23.784 -15.118 c -6.735 1.912 7.842 6.16 11.902 12.079 c -6.234 -2.431 -12.381 -5.776 -18.959 -6.36 c -1.591 -0.165 -3.171 -0.091 -4.728 0.335 c -1.138 0.312 -2.263 0.811 -3.372 1.543 c -0.409 0.27 -0.366 1.368 0.054 1.62 c 1.14 0.684 5.439 1.335 6.768 1.75 c 5.426 1.569 10.83 2.999 15.062 7.088 c -5.49 -0.515 -8.52 -3.801 -19.73 0.01 c -10.667 3.627 -12.664 8.851 -17.929 13.159 c -0.135 0.229 -2.415 1.712 -2.415 1.712 s -1.596 -0.342 -3.481 -0.218 c -2.64 0.173 -5.154 2.604 -3.703 5.236 c 0.425 0.771 1.431 1.66 1.861 2.463 c -2.685 1.79 -6.4 4.253 -7.088 4.907 c -2.184 1.498 -4.348 3.018 -6.43 4.621 c -1.403 1.079 -0.795 3.818 1.045 3.467 c 1.5 0.253 3.154 -0.737 4.533 -1.346 c 1.998 -0.883 3.948 -1.858 5.87 -2.884 c 0.392 -0.209 0.779 -0.428 1.169 -0.641 c -0.847 1.091 -2.018 2.284 -3.604 3.605 c -1.174 0.874 -2.332 1.788 -3.347 2.751 c -2.184 1.498 -4.348 3.018 -6.43 4.621 c -1.402 1.08 -0.795 3.819 1.045 3.467 c 1.5 0.253 3.155 -0.737 4.533 -1.346 c 1.998 -0.883 3.947 -1.857 5.87 -2.884 c 1.922 -1.026 3.818 -2.104 5.712 -3.187 c 1.986 -0.746 3.825 -1.714 5.558 -2.838 c 1.733 -1.124 3.362 -2.404 4.927 -3.773 c 6.25 -5.34 8.145 -7.373 15.676 -10.981 c 1.506 -0.722 12.38 -5.213 13.973 -5.671 c 3.881 -2.179 26.65 9.104 28.823 5.615 c 2.483 -2.736 -12.636 -6.428 -19.996 -8.855 c 3.663 0.988 6.966 0.247 9.364 -1.42 c 6.091 1.994 12.482 4.192 13.51 2.543 C 96.293 47.312 90.068 45.21 84.091 43.386 z M 68.255 46.354 c 0.508 0.29 1.012 0.538 1.512 0.76 C 69.061 46.833 68.529 46.577 68.255 46.354 z M 73.464 39.386 c -1.013 0 -1.834 -0.821 -1.834 -1.834 c 0 -1.013 0.821 -1.834 1.834 -1.834 s 1.422 0.75 1.422 1.763 S 74.477 39.386 73.464 39.386 z"
   stroke-linecap="round"
   fill="url(#Gradient1)"
   id="path2" />&#10;</g>&#10;		<g
   transform="matrix(1 0 0 1 -21.0999 50.9336)"
   style="fill:#000000"
   id="g3">&#10;</g>&#10;		<g
   transform="matrix(1 0 0 1 -23.7488 55.9336)"
   style="fill:#000000"
   id="g4">&#10;</g>&#10;</g>&#10;</g>&#10;<g
   transform="matrix(1.1225 0.4377 -0.4291 1.1004 810.2392 523.2259)"
   id="388110"
   style="fill:#ff6600">&#10;<g
   style="fill:#ff6600"
   vector-effect="non-scaling-stroke"
   id="g8">&#10;		<g
   transform="matrix(1 0 0 1 0 0)"
   id="g6"
   style="fill:#ff6600">&#10;<path
   style="stroke:none;stroke-width:1;stroke-dasharray:none;stroke-linecap:butt;stroke-dashoffset:0;stroke-linejoin:miter;stroke-miterlimit:4;is-custom-font:none;font-file-url:none;fill:#ff6600;fill-rule:nonzero;opacity:0.1"
   transform=" translate(-24, -24)"
   d="M 0 0 h 48 v 48 h -48 z"
   stroke-linecap="round"
   id="path5" />&#10;</g>&#10;		<g
   transform="matrix(1 0 0 1 0 0)"
   id="g7"
   style="fill:#ff6600">&#10;<path
   style="stroke:none;stroke-width:1;stroke-dasharray:none;stroke-linecap:butt;stroke-dashoffset:0;stroke-linejoin:miter;stroke-miterlimit:4;is-custom-font:none;font-file-url:none;fill:#ff6600;fill-rule:nonzero;opacity:1"
   transform=" translate(-24, -24)"
   d="M 40 24 c 0 -5.09 -2.38 -9.62 -6.09 -12.55 l -1.91 -11.45 h -16 l -1.91 11.45 c -3.71 2.93 -6.09 7.46 -6.09 12.55 s 2.38 9.62 6.09 12.55 l 1.91 11.45 h 16 l 1.91 -11.45 c 3.71 -2.93 6.09 -7.46 6.09 -12.55 z m -28 0 c 0 -6.63 5.37 -12 12 -12 s 12 5.37 12 12 s -5.37 12 -12 12 s -12 -5.37 -12 -12 z"
   stroke-linecap="round"
   id="path6" />&#10;</g>&#10;</g>&#10;</g>&#10;</svg>
